<svg width="32" height="38" viewBox="0 0 32 38" fill="none" xmlns="http://www.w3.org/2000/svg">
<g clip-path="url(#clip0_429_310)">
<path d="M26.2066 10.1905C26.2066 15.7841 21.5961 20.381 15.9999 20.381C10.4037 20.381 5.79321 15.7778 5.79321 10.1905C5.79321 6.51429 7.96173 3.90476 8.43868 3.37778C8.86476 2.90159 11.5802 0 15.9999 0C19.9617 0 22.5182 2.33651 23.0587 2.85714C23.4466 3.23175 26.2066 6.05714 26.2066 10.1905Z" fill="#741B3F"/>
<path d="M29.8378 38C31.1924 38 32.1971 36.7746 31.9618 35.4413C30.6518 27.8222 24 22.0254 15.9936 22.0254C7.98728 22.0254 1.34817 27.8159 0.031795 35.4349C-0.19714 36.7682 0.80127 37.9936 2.1558 37.9936H29.8315L29.8378 38Z" fill="#741B3F"/>
</g>
<defs>
<clipPath id="clip0_429_310">
<rect width="32" height="38" fill="white"/>
</clipPath>
</defs>
</svg>
