<svg width="32" height="36" viewBox="0 0 32 36" fill="none" xmlns="http://www.w3.org/2000/svg">
<g clip-path="url(#clip0_302_755)">
<path d="M31.0499 12.2948C28.7041 10.9413 26.0666 9.2232 23.3249 7.04418C20.4624 4.76877 18.1041 2.48918 16.2041 0.431675C15.6166 -0.0376533 14.8083 -0.129843 14.1291 0.201201C13.4916 0.511293 13.0208 1.15243 13.0208 1.98213V25.7126C13.0208 27.3678 14.9208 28.2897 16.2083 27.2588C17.9916 25.2474 20.2624 22.9846 23.0749 20.7301C25.9333 18.438 28.6791 16.7031 31.0583 15.3915C31.6499 15.0856 32.0208 14.4654 32.0041 13.8033C31.9874 13.1664 31.6249 12.5881 31.0583 12.299L31.0499 12.2948Z" fill="#741B3F"/>
<path d="M3.69148 35.5685C4.31647 36.4694 5.70814 35.8408 5.48731 34.7639C4.62481 30.5735 5.65398 26.5632 8.22064 24.1831C10.6248 21.9538 13.7456 21.7358 15.0998 21.7317C15.0998 16.326 15.0998 10.9162 15.0998 5.5105C14.1873 5.7284 4.80814 8.15047 1.26648 17.1892C-1.08352 23.1774 -0.0918581 30.0874 3.69564 35.5727L3.69148 35.5685Z" fill="#741B3F"/>
</g>
<defs>
<clipPath id="clip0_302_755">
<rect width="32" height="36" fill="white"/>
</clipPath>
</defs>
</svg>
