<svg width="84" height="50" viewBox="0 0 84 50" fill="none" xmlns="http://www.w3.org/2000/svg">
<g clip-path="url(#clip0_329_229)">
<path d="M77.7126 5.33682L45.6769 0.09947C43.6963 -0.220314 41.7084 0.23449 40.0735 1.38571C38.4386 2.53693 37.3655 4.24955 37.0342 6.20379L35.8386 13.3385L5.30821 18.3272C1.85112 18.8886 -0.482411 22.1077 0.0865677 25.5187L3.31318 44.7626C3.88216 48.1737 7.15199 50.4761 10.6019 49.9147L46.1594 44.1017C49.6165 43.5403 51.9501 40.3141 51.3811 36.9102L50.8553 33.7834L72.3469 37.2939C72.7574 37.3579 73.1679 37.3934 73.5785 37.3934C77.1868 37.3934 80.3774 34.8138 80.9824 31.1896L83.8921 13.8502C84.5691 9.8209 81.7962 5.99771 77.7054 5.32971L77.7126 5.33682ZM36.6813 24.133L26.0939 38.7223C25.741 39.2055 25.1865 39.4613 24.6319 39.4613C24.2718 39.4613 23.9045 39.3547 23.5876 39.1273L16.3781 34.0321C15.5714 33.4636 15.3842 32.3479 15.9604 31.552C16.5365 30.7561 17.6673 30.5713 18.4739 31.1398L24.2214 35.1975L33.7571 22.0509C34.3333 21.255 35.4641 21.0702 36.2707 21.6387C37.0774 22.2072 37.2647 23.3229 36.6885 24.1188L36.6813 24.133ZM80.3414 13.2746L77.4317 30.614C77.0788 32.7103 75.0621 34.1387 72.9375 33.7905L50.2359 30.081L48.1545 17.6592C47.5855 14.2481 44.3157 11.9457 40.8658 12.5071L39.5982 12.7132L40.5921 6.77229C40.765 5.75609 41.3267 4.8678 42.1766 4.26377C43.0265 3.65973 44.0636 3.42522 45.0935 3.59577L77.1292 8.82602C79.2538 9.17423 80.7015 11.164 80.3486 13.2604L80.3414 13.2746Z" fill="#741B3F"/>
<path d="M65.2165 13.2603C64.8564 13.2603 64.4891 13.3669 64.1722 13.5943L51.8635 22.2853C51.0569 22.8538 50.8696 23.9695 51.4458 24.7654C51.7987 25.2486 52.3533 25.5045 52.9078 25.5045C53.2679 25.5045 53.6353 25.3979 53.9522 25.1705L66.2608 16.4794C67.0675 15.9109 67.2547 14.7952 66.6786 13.9993C66.3257 13.5161 65.7711 13.2532 65.2165 13.2532V13.2603Z" fill="#741B3F"/>
<path d="M54.658 11.5335C54.2978 11.5335 53.9305 11.6401 53.6136 11.8675C52.807 12.436 52.6197 13.5517 53.1959 14.3476L62.0043 26.4923C62.3572 26.9755 62.9118 27.2313 63.4663 27.2313C63.8264 27.2313 64.1938 27.1247 64.5107 26.8973C65.3173 26.3288 65.5046 25.2131 64.9284 24.4172L56.12 12.2725C55.7671 11.7893 55.2125 11.5264 54.6508 11.5264L54.658 11.5335Z" fill="#741B3F"/>
</g>
<defs>
<clipPath id="clip0_329_229">
<rect width="84" height="50" fill="white"/>
</clipPath>
</defs>
</svg>
