<svg width="55" height="46" viewBox="0 0 55 46" fill="none" xmlns="http://www.w3.org/2000/svg">
<g clip-path="url(#clip0_329_245)">
<path d="M36.204 22.3494C36.204 27.1065 32.2735 31.0159 27.5027 31.0159C22.7318 31.0159 18.8013 27.1011 18.8013 22.3494C18.8013 19.2229 20.65 17.0037 21.0566 16.5555C21.4253 16.1505 23.7402 13.6829 27.5027 13.6829C30.8802 13.6829 33.0596 15.6699 33.5204 16.1127C33.8511 16.4313 36.204 18.8342 36.204 22.3494Z" fill="#741B3F"/>
<path d="M39.2942 45.9999C40.4489 45.9999 41.3055 44.9578 41.1049 43.8239C39.9881 37.3442 34.3173 32.4143 27.4918 32.4143C20.6663 32.4143 15.0009 37.3442 13.8787 43.8239C13.6835 44.9578 14.5347 45.9999 15.6895 45.9999H39.2833H39.2942Z" fill="#741B3F"/>
<path d="M49.3951 11.9827C51.2341 7.56065 49.1257 2.49102 44.6859 0.659356C40.2461 -1.17231 35.1561 0.927595 33.3171 5.34964C31.4781 9.77167 33.5864 14.8413 38.0262 16.673C42.466 18.5046 47.556 16.4047 49.3951 11.9827Z" fill="#741B3F"/>
<path d="M15.0325 17.2217C19.776 16.4548 22.9972 12.0031 22.2272 7.27857C21.4572 2.55402 16.9877 -0.654279 12.2441 0.112623C7.5006 0.879524 4.27941 5.33122 5.04939 10.0558C5.81937 14.7803 10.289 17.9886 15.0325 17.2217Z" fill="#741B3F"/>
<path d="M54.9675 30.1356C53.8507 23.656 48.1799 18.7261 41.3544 18.7261C40.0966 18.7261 38.8822 18.8989 37.7275 19.212C37.9985 20.1462 38.1503 21.1289 38.1503 22.1495C38.1503 26.0049 36.0685 29.3743 32.9729 31.2318C33.7807 31.5287 34.5505 31.8959 35.2933 32.3117H53.1567C54.3115 32.3117 55.1681 31.2696 54.9675 30.1356Z" fill="#741B3F"/>
<path d="M22.0217 31.2374C18.926 29.3799 16.8442 26.0105 16.8442 22.1551C16.8442 21.1346 16.996 20.1518 17.2671 19.2177C16.1123 18.9045 14.898 18.7317 13.6402 18.7317C6.81466 18.7263 1.14931 23.6562 0.0270837 30.1359C-0.168086 31.2698 0.683072 32.3119 1.83783 32.3119H19.7013C20.4386 31.8962 21.2139 31.529 22.0217 31.232V31.2374Z" fill="#741B3F"/>
</g>
<defs>
<clipPath id="clip0_329_245">
<rect width="55" height="46" fill="white"/>
</clipPath>
</defs>
</svg>
