<svg width="277" height="228" viewBox="0 0 277 228" fill="none" xmlns="http://www.w3.org/2000/svg">
<g clip-path="url(#clip0_272_7992)">
<path d="M0 198.785V110.528H18.9665V198.785H0ZM8.7269 127.547V110.528H59.825V127.547H8.7269ZM8.7269 163.738V147.465H66.1249V163.738H8.7269Z" fill="#F7DCAD"/>
<path d="M64.8284 198.785C61.4207 173.796 63.3822 154.823 65.992 141.798C68.1529 130.96 72.9901 113.13 67.4548 91.4552C66.5405 87.8593 65.5431 84.9593 64.8284 83.0371H82.7808C82.0827 84.9428 81.102 87.793 80.1877 91.306C74.536 113.064 78.9576 130.828 81.0687 142.527C83.4291 155.601 85.2909 174.393 82.7808 198.785H64.8284Z" fill="#F7DCAD"/>
<path d="M124.52 228C119.201 228 113.982 227.221 108.829 225.664C103.692 224.106 99.47 222.068 96.1787 219.549L102.628 206.806C104.307 207.982 106.252 209.026 108.446 209.954C110.64 210.882 112.934 211.595 115.345 212.092C117.755 212.589 120.215 212.854 122.742 212.854C127.13 212.854 130.737 212.175 133.563 210.833C136.389 209.49 138.517 207.469 139.946 204.784C141.376 202.1 142.091 198.736 142.091 194.692V183.093L145.132 183.722C144.634 186.49 143.221 189.042 140.894 191.345C138.566 193.648 135.707 195.504 132.3 196.896C128.892 198.288 125.318 198.968 121.611 198.968C115.461 198.968 109.976 197.543 105.172 194.676C100.368 191.826 96.5777 187.865 93.785 182.828C90.9924 177.79 89.6128 171.94 89.6128 165.295C89.6128 158.651 90.9758 152.751 93.7186 147.581C96.4613 142.411 100.218 138.334 104.972 135.352C109.743 132.369 115.145 130.878 121.229 130.878C123.756 130.878 126.183 131.176 128.51 131.756C130.82 132.352 132.981 133.164 134.959 134.208C136.937 135.252 138.716 136.429 140.279 137.738C141.841 139.047 143.121 140.456 144.135 141.964C145.149 143.471 145.781 144.996 146.03 146.504L142.356 147.515L142.855 132.253H160.06V193.914C160.06 199.382 159.262 204.204 157.649 208.413C156.054 212.622 153.71 216.168 150.635 219.068C147.559 221.968 143.803 224.172 139.381 225.68C134.959 227.188 130.006 227.95 124.52 227.95V228ZM125.019 184.634C128.56 184.634 131.668 183.838 134.311 182.231C136.971 180.64 139.015 178.403 140.445 175.553C141.874 172.703 142.589 169.339 142.589 165.461C142.589 161.584 141.874 158.336 140.445 155.436C139.015 152.536 136.971 150.282 134.311 148.691C131.651 147.101 128.56 146.289 125.019 146.289C121.478 146.289 118.52 147.117 115.91 148.741C113.3 150.365 111.255 152.652 109.776 155.552C108.297 158.452 107.565 161.749 107.565 165.445C107.565 169.14 108.297 172.57 109.776 175.47C111.255 178.37 113.3 180.624 115.91 182.214C118.52 183.805 121.562 184.617 125.019 184.617V184.634Z" fill="#F7DCAD"/>
<path d="M167.091 198.785V105.474H184.794V145.692L181.253 147.2C182.184 144.167 183.847 141.417 186.257 138.948C188.667 136.462 191.543 134.473 194.917 132.965C198.292 131.458 201.832 130.695 205.539 130.695C210.592 130.695 214.831 131.706 218.255 133.728C221.663 135.749 224.24 138.798 225.968 142.875C227.697 146.951 228.562 151.972 228.562 157.938V198.785H210.609V159.313C210.609 156.281 210.194 153.762 209.346 151.74C208.498 149.719 207.218 148.26 205.489 147.333C203.761 146.405 201.633 145.99 199.106 146.073C197.078 146.073 195.2 146.388 193.471 147.018C191.742 147.647 190.263 148.559 189.049 149.735C187.819 150.912 186.855 152.254 186.141 153.762C185.426 155.27 185.06 156.911 185.06 158.684V198.785H167.108H167.091Z" fill="#F7DCAD"/>
<path d="M232.734 148.095V132.087H277V148.095H232.734ZM245.251 198.785V115.185H263.203V198.785H245.251Z" fill="#F7DCAD"/>
<path d="M0 93.3112V5.0376H18.9665V93.2946H0V93.3112ZM8.7269 22.0726V5.0376H59.825V22.056H8.7269V22.0726ZM8.7269 58.247V41.9743H54.5057V58.247H8.7269Z" fill="#F7DCAD"/>
<path d="M116.475 93.3111V26.6129H133.796L134.427 48.0558L131.386 43.6479C132.399 40.2011 134.045 37.0692 136.322 34.2522C138.6 31.4351 141.276 29.2312 144.351 27.6403C147.426 26.0495 150.651 25.2375 154.026 25.2375C155.455 25.2375 156.851 25.3701 158.198 25.6187C159.544 25.8672 160.691 26.1655 161.606 26.4969L156.802 46.1667C155.871 45.6696 154.674 45.2221 153.194 44.841C151.715 44.4599 150.219 44.2776 148.706 44.2776C146.678 44.2776 144.8 44.6422 143.071 45.3547C141.342 46.0673 139.846 47.0781 138.583 48.3872C137.32 49.6963 136.322 51.2208 135.608 52.9939C134.893 54.7504 134.527 56.6893 134.527 58.7938V93.3442H116.442L116.475 93.3111Z" fill="#F7DCAD"/>
<path d="M167.091 129.37V0H185.043V129.37H167.091ZM184.162 73.2603L178.843 58.5121L210.459 26.613H234.114L184.146 73.2603H184.162ZM212.371 93.3111L188.335 63.1685L200.985 53.0768L233.997 93.2946H212.371V93.3111Z" fill="#F7DCAD"/>
<path d="M104.656 41.9909C101.614 36.7876 97.4254 32.678 92.0729 29.6952C86.7204 26.7125 80.6698 25.2211 73.921 25.2211C67.1722 25.2211 61.0052 26.7125 55.6361 29.6952C50.2836 32.678 46.0614 36.771 42.9862 41.9909C39.911 47.2108 38.3651 53.1763 38.3651 59.8875C38.3651 66.5988 39.8944 72.5809 42.9862 77.8008C46.0614 83.0206 50.2836 87.1137 55.6361 90.0964C58.7611 91.8364 62.1355 93.0461 65.7593 93.7752C62.601 91.3558 60.5564 87.5776 60.5564 83.3189V72.4649C59.8915 71.6032 59.2764 70.6918 58.7445 69.681C57.2318 66.7811 56.5171 63.5166 56.6002 59.9041C56.5171 56.2088 57.2318 52.9277 58.7445 50.061C60.2572 47.2107 62.335 44.9405 64.9447 43.2503C67.5545 41.5766 70.5466 40.7315 73.921 40.7315C77.2954 40.7315 80.1545 41.5435 82.7809 43.184C85.3906 44.8245 87.4352 47.0948 88.9146 49.9947C90.394 52.8946 91.0922 56.1922 90.9925 59.8875C91.0756 63.5 90.3774 66.7645 88.9146 69.6644C88.3827 70.7084 87.751 71.6529 87.0695 72.5312V83.3023C87.0695 87.5942 85.0083 91.389 81.8167 93.8083C85.4737 93.0958 88.9146 91.853 92.0896 90.0799C97.442 87.0971 101.631 83.0041 104.673 77.7842C107.715 72.5643 109.228 66.5988 109.228 59.871C109.228 53.1432 107.715 47.1776 104.673 41.9743L104.656 41.9909Z" fill="#F7DCAD"/>
<path d="M79.3067 55.2311V77.8836C79.3067 78.3476 78.9244 78.7287 78.459 78.7287H77.1956C76.7302 78.7287 76.3479 78.3476 76.3479 77.8836V55.2311C76.3479 54.7671 75.9656 54.386 75.5001 54.386H72.0592C71.5938 54.386 71.2115 54.7671 71.2115 55.2311V77.8836C71.2115 78.3476 70.8292 78.7287 70.3637 78.7287H69.1004C68.635 78.7287 68.2527 78.3476 68.2527 77.8836V55.2311C68.2527 54.7671 67.8703 54.386 67.4049 54.386H64.6788C64.2133 54.386 63.831 54.7671 63.831 55.2311V83.3189C63.831 88.7873 68.2693 93.2118 73.7547 93.2118C79.2402 93.2118 83.6785 88.7873 83.6785 83.3189V55.2311C83.6785 54.7671 83.2962 54.386 82.8307 54.386H80.1046C79.6392 54.386 79.2568 54.7671 79.2568 55.2311H79.3067Z" fill="#F7DCAD"/>
</g>
<defs>
<clipPath id="clip0_272_7992">
<rect width="277" height="228" fill="white"/>
</clipPath>
</defs>
</svg>
