<svg width="246" height="59" viewBox="0 0 246 59" fill="none" xmlns="http://www.w3.org/2000/svg">
<g clip-path="url(#clip0_272_8054)">
<path d="M114.421 44.9323V2.42578H123.556V44.9243H114.421V44.9323ZM118.624 10.6286V2.42578H143.236V10.6207H118.624V10.6286ZM118.624 28.0478V20.212H146.271V28.0478H118.624Z" fill="#741B47"/>
<path d="M145.646 44.9323C144.005 39.195 144.95 34.8383 146.207 31.846C147.248 29.3564 149.578 25.2629 146.911 20.2917C146.471 19.4699 145.991 18.7996 145.646 18.3607H154.293C153.957 18.7996 153.485 19.4539 153.044 20.2598C150.322 25.255 152.452 29.3324 153.469 32.0135C154.606 35.0138 155.502 39.3307 154.293 44.9323H145.646Z" fill="#741B47"/>
<path d="M172.556 59C169.994 59 167.48 58.625 164.998 57.8749C162.524 57.1248 160.491 56.1433 158.905 54.9305L162.012 48.7943C162.82 49.3608 163.757 49.8635 164.814 50.3104C165.871 50.7572 166.976 51.1003 168.137 51.3397C169.298 51.5791 170.483 51.7068 171.7 51.7068C173.813 51.7068 175.551 51.3796 176.912 50.7333C178.273 50.087 179.298 49.1135 179.986 47.8208C180.675 46.5281 181.019 44.9083 181.019 42.9613V37.3757L182.484 37.6789C182.244 39.0115 181.564 40.2403 180.443 41.3495C179.322 42.4586 177.945 43.3523 176.303 44.0226C174.662 44.6929 172.941 45.02 171.155 45.02C168.193 45.02 165.551 44.3338 163.237 42.9533C160.923 41.5809 159.097 39.6738 157.752 37.248C156.407 34.8223 155.743 32.0055 155.743 28.8058C155.743 25.606 156.399 22.7653 157.72 20.2758C159.041 17.7862 160.851 15.8232 163.141 14.3869C165.439 12.9506 168.041 12.2325 170.971 12.2325C172.188 12.2325 173.357 12.3761 174.478 12.6554C175.591 12.9427 176.632 13.3336 177.584 13.8364C178.537 14.3391 179.394 14.9056 180.147 15.536C180.899 16.1663 181.516 16.8446 182.004 17.5707C182.492 18.2969 182.797 19.031 182.917 19.7571L181.147 20.2438L181.388 12.8948H189.674V42.5863C189.674 45.2195 189.29 47.5415 188.513 49.5683C187.745 51.5951 186.616 53.3027 185.135 54.6991C183.653 56.0955 181.844 57.1567 179.714 57.8829C177.584 58.609 175.198 58.9761 172.556 58.9761V59ZM172.797 38.1098C174.502 38.1098 175.999 37.7268 177.272 36.9528C178.553 36.1868 179.538 35.1095 180.227 33.7371C180.915 32.3646 181.259 30.7448 181.259 28.8776C181.259 27.0104 180.915 25.4464 180.227 24.05C179.538 22.6536 178.553 21.5684 177.272 20.8024C175.991 20.0364 174.502 19.6454 172.797 19.6454C171.091 19.6454 169.666 20.0444 168.409 20.8263C167.152 21.6083 166.167 22.7095 165.455 24.1059C164.742 25.5023 164.39 27.0902 164.39 28.8696C164.39 30.649 164.742 32.3008 165.455 33.6972C166.167 35.0936 167.152 36.1788 168.409 36.9448C169.666 37.7108 171.131 38.1018 172.797 38.1018V38.1098Z" fill="#741B47"/>
<path d="M193.061 44.9322V0H201.588V19.3661L199.882 20.0922C200.331 18.632 201.131 17.3074 202.292 16.1185C203.453 14.9216 204.838 13.964 206.464 13.2379C208.089 12.5118 209.795 12.1447 211.58 12.1447C214.014 12.1447 216.056 12.6315 217.705 13.6049C219.346 14.5784 220.587 16.0467 221.42 18.0096C222.253 19.9725 222.669 22.3903 222.669 25.2629V44.9322H214.022V25.9252C214.022 24.465 213.822 23.2521 213.413 22.2786C213.005 21.3051 212.389 20.6029 211.556 20.1561C210.723 19.7092 209.698 19.5097 208.481 19.5496C207.505 19.5496 206.6 19.7012 205.767 20.0045C204.935 20.3077 204.222 20.7465 203.638 21.3131C203.045 21.8796 202.581 22.526 202.236 23.2521C201.892 23.9782 201.716 24.7682 201.716 25.622V44.9322H193.069H193.061Z" fill="#741B47"/>
<path d="M224.679 20.5231V12.815H246V20.5231H224.679ZM230.708 44.9323V4.67596H239.355V44.9323H230.708Z" fill="#741B47"/>
<path d="M0 45.0519V2.55341H9.13543V45.0519H0ZM4.20342 10.7483V2.55341H28.8154V10.7483H4.20342ZM4.20342 28.1754V20.3396H26.2533V28.1754H4.20342Z" fill="#741B47"/>
<path d="M35.6049 45.6584C32.3143 45.6584 29.3839 44.9402 26.7978 43.5039C24.2197 42.0676 22.186 40.0967 20.7048 37.5832C19.2236 35.0697 18.479 32.1971 18.479 28.9574C18.479 25.7177 19.2156 22.8451 20.7048 20.3396C22.186 17.8341 24.2197 15.8552 26.7978 14.4189C29.3759 12.9826 32.3143 12.2644 35.6049 12.2644C38.8956 12.2644 41.7699 12.9826 44.348 14.4189C46.9261 15.8552 48.9438 17.8261 50.409 20.3396C51.8742 22.8531 52.6027 25.7257 52.6027 28.9574C52.6027 32.1891 51.8742 35.0697 50.409 37.5832C48.9438 40.0967 46.9261 42.0676 44.348 43.5039C41.7699 44.9402 38.8556 45.6584 35.6049 45.6584ZM35.6049 38.1338C37.1902 38.1338 38.6074 37.7428 39.8724 36.9528C41.1294 36.1628 42.1142 35.0697 42.8268 33.6733C43.5394 32.2768 43.8757 30.7049 43.8276 28.9654C43.8676 27.186 43.5314 25.5981 42.8268 24.2017C42.1142 22.8052 41.1294 21.7121 39.8724 20.9221C38.6154 20.1321 37.1902 19.7411 35.6049 19.7411C34.0196 19.7411 32.5384 20.1481 31.2814 20.954C30.0244 21.7679 29.0236 22.8531 28.295 24.2336C27.5664 25.614 27.2221 27.186 27.2621 28.9734C27.2221 30.7129 27.5664 32.2848 28.295 33.6812C29.0236 35.0776 30.0244 36.1708 31.2814 36.9608C32.5384 37.7507 33.9796 38.1417 35.6049 38.1417V38.1338Z" fill="#741B47"/>
<path d="M56.1016 45.0519V12.9347H64.4444L64.7486 23.2601L63.2834 21.1376C63.7718 19.4778 64.5645 17.9697 65.6614 16.6132C66.7582 15.2567 68.0473 14.1954 69.5285 13.4294C71.0097 12.6634 72.563 12.2724 74.1883 12.2724C74.8768 12.2724 75.5494 12.3362 76.1979 12.4559C76.8464 12.5756 77.3989 12.7192 77.8393 12.8788L75.5254 22.3504C75.077 22.1111 74.5005 21.8956 73.788 21.7121C73.0754 21.5286 72.3548 21.4408 71.6262 21.4408C70.6494 21.4408 69.7447 21.6163 68.912 21.9594C68.0793 22.3026 67.3587 22.7893 66.7502 23.4197C66.1417 24.0501 65.6614 24.7842 65.3171 25.638C64.9728 26.4838 64.7967 27.4174 64.7967 28.4308V45.0679H56.0856L56.1016 45.0519Z" fill="#741B47"/>
<path d="M80.4814 45.0599V0.11969H89.1285V45.0519H80.4814V45.0599ZM88.7041 35.3968L86.142 28.2951L101.37 12.9347H112.764L88.6961 35.3968H88.7041ZM102.291 45.0519L90.7138 30.5373L96.8067 25.6778L112.708 45.0439H102.291V45.0519Z" fill="#741B47"/>
<path d="M149.818 20.7386C146.983 20.7386 144.678 18.4405 144.678 15.6158V2.09061C144.678 1.6677 145.022 1.32458 145.446 1.32458H146.759C147.184 1.32458 147.528 1.6677 147.528 2.09061V12.9985C147.528 12.9985 147.544 13.0384 147.568 13.0384H148.176C148.176 13.0384 148.216 13.0224 148.216 12.9985V2.09061C148.216 1.6677 148.561 1.32458 148.985 1.32458H150.642C151.067 1.32458 151.411 1.6677 151.411 2.09061V12.9985C151.411 12.9985 151.427 13.0384 151.451 13.0384H152.06C152.06 13.0384 152.1 13.0224 152.1 12.9985V2.09061C152.1 1.6677 152.444 1.32458 152.868 1.32458H154.181C154.606 1.32458 154.95 1.6677 154.95 2.09061V15.6158C154.95 18.4405 152.644 20.7386 149.81 20.7386H149.818Z" fill="white"/>
<path d="M152.468 2.09061V12.9985C152.468 13.2219 152.284 13.4055 152.06 13.4055H151.451C151.227 13.4055 151.043 13.2219 151.043 12.9985V2.09061C151.043 1.86718 150.859 1.68365 150.634 1.68365H148.977C148.753 1.68365 148.569 1.86718 148.569 2.09061V12.9985C148.569 13.2219 148.385 13.4055 148.16 13.4055H147.552C147.328 13.4055 147.144 13.2219 147.144 12.9985V2.09061C147.144 1.86718 146.96 1.68365 146.735 1.68365H145.422C145.198 1.68365 145.014 1.86718 145.014 2.09061V15.6158C145.014 18.249 147.152 20.3795 149.794 20.3795C152.436 20.3795 154.574 18.249 154.574 15.6158V2.09061C154.574 1.86718 154.39 1.68365 154.165 1.68365H152.852C152.628 1.68365 152.444 1.86718 152.444 2.09061H152.468Z" fill="#741B47"/>
</g>
<defs>
<clipPath id="clip0_272_8054">
<rect width="246" height="59" fill="white"/>
</clipPath>
</defs>
</svg>
